<svg width="30" height="36" viewBox="0 0 30 36" fill="none" xmlns="http://www.w3.org/2000/svg">
<path d="M28.2417 1.69355C25.3976 -2.66429 5.95533 2.48767 1.92479 4.86512C0.659393 5.57835 1.45119 7.24257 2.31946 8.59061C3.18773 9.93865 3.90059 11.6029 6.42893 9.46316C7.22566 8.78914 9.39879 7.54649 12.0184 6.25483C9.54186 10.9656 1.55726 26.1641 0.425059 28.5686C-0.522141 30.6298 0.267193 31.6592 1.29333 32.4534C2.38359 33.2352 3.16799 34.473 4.24839 32.8382C5.01059 34.3774 6.92966 36.8308 11.0909 35.3063C30.4543 28.1715 26.2634 21.196 25.7109 18.7377C25.1583 16.2009 23.814 15.3284 15.9108 17.3112C15.9108 17.3112 20.0992 16.1225 25.2373 12.3161C30.3753 8.50973 31.0857 6.05384 28.2392 1.69355H28.2417ZM20.1806 22.3063C15.4125 26.3038 9.40126 29.7867 6.19213 29.4436C7.60306 26.9068 9.56406 23.3259 11.4165 19.9092C18.3799 18.0416 25.8169 17.6543 20.1806 22.3038V22.3063ZM15.3484 12.5759C15.8319 11.6568 16.2191 10.9117 16.4658 10.4141C18.2837 6.76708 17.3341 5.89453 15.7554 4.62737C15.7258 4.60531 15.7011 4.58571 15.6715 4.56365C20.5777 2.4313 25.6048 0.84306 25.9501 2.48767C26.5101 5.15188 21.6261 9.42884 15.3484 12.5759Z" fill="black"/>
</svg>
